# xmcd
#
# Track frame offsets: 
#        182
#        9272
#        28635
#        39185
#        46197
#        66685
#        86835
#        100885
#        108897
#        117435
#        131560
#        141785
#        157047
#        167872
#        173722
#
# Disc length: 2510 seconds
#
# Revision: 20
# Processed by: cddbd v1.5.2PL0 Copyright (c) Steve Scherf et al.
# Submitted via: ExactAudioCopyFreeDBPlugin 1.0
#
DISCID=c509cc0f
DTITLE=Tom Waits - Swordfishtrombones
DYEAR=1983
DGENRE=Jazz Blues
TTITLE0=Underground
TTITLE1=Shore Leave
TTITLE2=Dave The Butcher
TTITLE3=Johnsburg, Illinois
TTITLE4=16 Shells From A 30.6
TTITLE5=Town With No Cheer
TTITLE6=In The Neighbourhood
TTITLE7=Just Another Sucker On The Vine
TTITLE8=Frank's Wild Years
TTITLE9=Swordfishtrombone
TTITLE10=Down, Down, Down
TTITLE11=Soldier's Things
TTITLE12=Gin Soaked Boy
TTITLE13=Trouble Braids
TTITLE14=Rainbirds
EXTD=
EXTT0=
EXTT1=
EXTT2=
EXTT3=
EXTT4=
EXTT5=
EXTT6=
EXTT7=
EXTT8=
EXTT9=
EXTT10=
EXTT11=
EXTT12=
EXTT13=
EXTT14=
PLAYORDER=
